<svg xmlns="http://www.w3.org/2000/svg" viewBox="0 0 160 160" fill="none">
  <defs>
    <linearGradient id="bg" x1="20" y1="18" x2="142" y2="144" gradientUnits="userSpaceOnUse">
      <stop stop-color="#F59E0B"/>
      <stop offset="1" stop-color="#EA580C"/>
    </linearGradient>
    <linearGradient id="panel" x1="43" y1="34" x2="117" y2="126" gradientUnits="userSpaceOnUse">
      <stop stop-color="#FFF7ED"/>
      <stop offset="1" stop-color="#FED7AA"/>
    </linearGradient>
  </defs>
  <rect width="160" height="160" rx="36" fill="url(#bg)"/>
  <rect x="38" y="36" width="84" height="88" rx="18" fill="url(#panel)"/>
  <rect x="53" y="56" width="54" height="10" rx="5" fill="#FDBA74"/>
  <rect x="53" y="74" width="40" height="10" rx="5" fill="#FB923C"/>
  <rect x="53" y="92" width="28" height="10" rx="5" fill="#F97316"/>
  <path d="M112 112 98 98l-22 24h56l-20-10Z" fill="#C2410C" opacity=".9"/>
  <circle cx="116" cy="55" r="12" fill="#FFEDD5"/>
  <path d="m116 48 1.9 3.9 4.3.6-3.1 3 .7 4.3-3.8-2-3.8 2 .7-4.3-3.1-3 4.3-.6L116 48Z" fill="#F59E0B"/>
</svg>
